# xmcd
# 
# Track frame offsets:
#     150
#     16387
#     36795
#     59267
# 
# Disc length: 991
# 
# Revision: 0
# Processed by: cddbd v1.5.2PL0 Copyright (c) Steve Scherf et al.
# Submitted via: BonkEnc v1.0
# 
DISCID=2a03dd04
DTITLE=MIC - Superhuman EP
DYEAR=1997
DGENRE=Dance
TTITLE0=Superhuman
TTITLE1=Superhuman (Extended Mix)
TTITLE2=Superhuman (Club Mix 150bpm)
TTITLE3=Pretend (Only Mix)
EXTD=
EXTT0=
EXTT1=
EXTT2=
EXTT3=
PLAYORDER=
